<svg xmlns="http://www.w3.org/2000/svg" version="1.1" xmlns:xlink="http://www.w3.org/1999/xlink" width="142" height="149.997681"><svg width="142.000000" height="149.997681" viewBox="0 0 142 149.998" fill="none" xmlns="http://www.w3.org/2000/svg" xmlns:xlink="http://www.w3.org/1999/xlink">
	<desc>
			Created with Pixso.
	</desc>
	<defs></defs>
	<path id="SvgjsPath1005" d="M70.99 86.99L34.62 149.99L70.99 124.49L107.37 149.99L70.99 86.99Z" fill="#8B5CF6" fill-opacity="1.000000" fill-rule="evenodd"></path>
	<path id="SvgjsPath1004" d="M71.5 46C57.96 46 47 56.96 47 70.5C47 78.24 50.59 85.14 56.2 89.63L71 64L86.1 90.16C92.11 85.7 96 78.55 96 70.5C96 56.96 85.03 46 71.5 46Z" fill="#000000" fill-opacity="1.000000" fill-rule="evenodd"></path>
	<path id="SvgjsPath1003" d="M71 0C31.78 0 0 31.78 0 71C0 96.02 12.94 118.02 32.5 130.67L46.13 107.06C34.57 99.03 27 85.64 27 70.5C27 45.92 46.92 26 71.5 26C96.07 26 116 45.92 116 70.5C116 85.96 108.11 99.58 96.14 107.55L109.49 130.67C129.05 118.02 142 96.02 142 71C142 31.78 110.21 0 71 0Z" fill="#000000" fill-opacity="1.000000" fill-rule="evenodd"></path>
</svg><style>@media (prefers-color-scheme: light) { :root { filter: none; } }
@media (prefers-color-scheme: dark) { :root { filter: none; } }
</style></svg>