<svg width="880.818359" height="165.812500" viewBox="0 0 880.818 165.812" fill="none" xmlns="http://www.w3.org/2000/svg" xmlns:xlink="http://www.w3.org/1999/xlink">
	<desc>
			Created with Pixso.
	</desc>
	<defs/>
	<path id="TechMind" d="M232.24 5.81L232.24 157.81L241.61 157.81L241.61 115.82Q241.61 109.17 244.06 103.61Q244.78 101.98 245.71 100.43C248.45 95.88 252.08 92.26 256.6 89.59C261.16 86.93 266.03 85.59 271.2 85.59C277.06 85.72 281.52 87.46 284.58 90.82Q285.88 92.21 286.83 93.81Q289.27 97.93 289.41 103.41L289.41 157.81L299.03 157.81L299.03 100.83Q298.9 93.93 295.86 88.76Q294.31 86.12 292 83.93C287.48 79.57 281.55 77.39 274.23 77.39Q265.02 77.39 257.53 80.97Q255.57 81.91 253.72 83.1Q245.46 88.41 241.42 95.88L241.42 5.81L232.24 5.81ZM93.01 15.82L0 15.82L0 25.19L41.4 25.19L41.4 157.81L51.22 157.81L51.22 25.19L93.01 25.19L93.01 15.82ZM94.59 154.05C100.87 157.63 108.08 159.42 116.22 159.42Q118.74 159.42 121.23 159.11Q126.25 158.5 131.11 156.64C136 154.75 140.29 152.34 144 149.41L139.22 142.62C136.16 145.16 132.66 147.23 128.72 148.82C124.78 150.42 120.68 151.22 116.42 151.22C110 151.22 104.32 149.69 99.37 146.63C94.46 143.53 90.63 139.46 87.9 134.42Q87.35 133.4 86.88 132.36L153.62 106.59Q150.2 95.84 143.24 88.4Q141.66 86.72 139.9 85.2Q137.29 82.93 134.32 81.3Q126.56 77 116.42 77Q108.53 77 101.6 79.59Q98.33 80.81 95.27 82.61Q90.39 85.51 86.53 89.42L86.53 89.42Q82.9 93.09 80.18 97.65Q78.24 100.92 76.98 104.44L76.98 104.44Q74.62 111 74.62 118.4Q74.62 127.77 78.05 135.65L78.05 135.65L78.05 135.66Q78.87 137.55 79.89 139.35Q82.31 143.56 85.56 146.98Q89.47 151.09 94.59 154.05ZM223.04 150.19C219.42 153.12 215.34 155.4 210.78 157.03C206.26 158.62 201.54 159.42 196.62 159.42Q185.8 159.42 177.08 155.14L177.07 155.14Q176.12 154.67 175.18 154.14Q170.1 151.26 166.18 147.24Q162.87 143.85 160.39 139.64C156.81 133.49 155.02 126.48 155.02 118.6Q155.02 109.09 158.65 101.27Q159.52 99.41 160.59 97.65C164.33 91.5 169.29 86.66 175.48 83.15Q179.33 80.95 183.47 79.66Q189.34 77.83 195.79 77.83C201.26 77.83 206.32 78.62 210.98 80.22C215.66 81.81 219.75 84.08 223.23 87.01L218.2 93.4C215.4 91.12 212.13 89.25 208.39 87.79C204.68 86.32 200.69 85.59 196.43 85.59Q191.26 85.59 186.59 87.13Q183.33 88.2 180.31 90.03C175.46 92.96 171.59 96.94 168.69 101.95C165.83 106.93 164.39 112.48 164.39 118.6C164.39 124.62 165.83 130.14 168.69 135.15C171.59 140.13 175.53 144.09 180.51 147.02Q182.83 148.38 185.32 149.32Q190.87 151.41 197.21 151.41C201.21 151.41 204.94 150.78 208.39 149.51C211.87 148.24 215.01 146.54 217.81 144.43L223.04 150.19ZM84.56 125.38Q83.8 121.81 83.8 118.01C83.8 111.73 85.23 106.13 88.1 101.22Q90.58 96.93 94.02 93.65L94.02 93.65L94.02 93.65Q96.54 91.25 99.57 89.4Q101.57 88.18 103.71 87.3L103.71 87.3Q109.3 85 115.83 85Q122.89 85 128.41 87.92L128.41 87.92Q130.67 89.12 132.67 90.82Q137.53 94.89 140.66 100.01Q141.52 101.41 142.25 102.89L84.56 125.38Z" fill="#8B5CF6" fill-opacity="1.000000" fill-rule="evenodd"/>
	<path id="Polygon 9" d="M809.81 102.81L773.44 165.81L809.81 140.31L846.19 165.81L809.81 102.81Z" fill="#8B5CF6" fill-opacity="1.000000" fill-rule="evenodd"/>
	<path id="Union" d="M642.192 154.541C648.605 158.317 655.88 160.205 664.018 160.205C671.343 160.205 677.804 158.903 683.403 156.299C688.118 154.106 692.464 151.52 696.44 148.542L696.44 157.812L724.419 157.812L724.419 0L696.635 0L696.635 76.6113C693.152 72.998 688.839 70.3287 683.696 68.6035C678.585 66.8783 673.231 66.0156 667.632 66.0156C658.81 66.0156 650.932 67.8223 643.999 71.4355Q639.641 73.6863 636.054 76.8202L636.049 76.8241L636.044 76.8293L636.041 76.8319Q631.077 81.1736 627.593 87.207C623.621 94.1406 621.635 102.539 621.635 112.402C621.635 122.266 623.458 130.811 627.104 138.037Q631.344 146.329 637.977 151.623Q639.976 153.218 642.192 154.541ZM696.44 148.535L696.44 148.542Q696.445 148.539 696.45 148.535L696.44 148.535ZM318.812 4.58984L318.812 157.812L346.84 157.812L346.84 92L346.868 92L393.031 155.811L393.422 155.811L441.42 87.578L441.42 157.812L470.424 157.812L470.424 4.58984L470.033 4.58984L393.698 110.526L393.69 110.526L319.008 4.58984L318.812 4.58984ZM441.42 87.578L441.42 87.5762L441.421 87.5762L441.42 87.578ZM552.013 70.4102L553.973 84.3479L553.97 84.3528L553.974 84.3528L553.973 84.3479C557.024 79.0038 561.302 74.6671 566.808 71.3379C572.407 67.9199 579.276 66.2109 587.414 66.2109C595.682 66.2109 602.583 68.6523 608.117 73.5352Q611.617 76.6029 613.676 80.4432Q616.5 85.7107 616.613 92.4316L616.613 157.812L588.634 157.812L588.634 102.832C588.504 98.9584 587.463 95.8496 585.509 93.5059C583.589 91.1621 580.366 89.9902 575.841 89.9902C571.544 89.9902 567.801 91.39 564.611 94.1895C561.421 96.9889 558.947 100.797 557.189 105.615C555.464 110.4 554.601 115.934 554.601 122.217L554.601 157.812L526.623 157.812L526.623 70.4102L552.013 70.4102ZM514.801 70.4102L486.823 70.4102L486.823 157.812L514.801 157.812L514.801 70.4102ZM683.11 135.107C680.246 136.117 676.942 136.621 673.198 136.621C669.064 136.621 665.223 135.563 661.675 133.447C658.159 131.299 655.327 128.353 653.178 124.609C651.063 120.866 650.005 116.667 650.005 112.012C650.005 107.357 651.063 103.223 653.178 99.6094Q655.201 96.2073 658.032 93.7284L658.036 93.7253L658.038 93.7238Q659.715 92.2566 661.675 91.1133C665.223 89.0299 669.064 87.9883 673.198 87.9883C676.942 87.9883 680.376 88.558 683.501 89.6973C686.658 90.8365 689.328 92.4479 691.509 94.5312C693.722 96.582 695.366 99.0723 696.44 102.002L696.44 123.389C694.813 126.351 692.892 128.792 690.678 130.713C688.498 132.633 685.975 134.098 683.11 135.107Z" clip-rule="evenodd" fill="#000000" fill-opacity="1.000000" fill-rule="evenodd"/>
	<circle id="Oval 14" cx="501.321014" cy="45.598022" r="15.401978" fill="#8B5CF6" fill-opacity="1.000000"/>
	<path id="Subtract" d="M810.318 61.8125C796.787 61.8125 785.818 72.7815 785.818 86.3125C785.818 94.0549 789.41 100.958 795.018 105.448L809.818 79.8125L824.927 105.982C830.93 101.517 834.818 94.3688 834.818 86.3125C834.818 72.7815 823.849 61.8125 810.318 61.8125Z" clip-rule="evenodd" fill="#000000" fill-opacity="1.000000" fill-rule="evenodd"/>
	<path id="Subtract" d="M809.818 15.8125C770.606 15.8125 738.818 47.6003 738.818 86.8125C738.818 111.837 751.765 133.839 771.326 146.483L784.953 122.88C773.389 114.844 765.818 101.462 765.818 86.3125C765.818 61.7358 785.742 41.8125 810.318 41.8125C834.895 41.8125 854.818 61.7358 854.818 86.3125C854.818 101.773 846.934 115.393 834.966 123.369L848.311 146.483C867.872 133.839 880.818 111.837 880.818 86.8125C880.818 47.6003 849.031 15.8125 809.818 15.8125Z" clip-rule="evenodd" fill="#000000" fill-opacity="1.000000" fill-rule="evenodd"/>
</svg>
